<?xml version="1.0" encoding="UTF-8"?><svg id="Layer_0_Image" data-name="Layer 0 Image" xmlns="http://www.w3.org/2000/svg" viewBox="0 0 800 600" x="0px" y="0px" width="800px" height="600px" xmlns:xlink="http://www.w3.org/1999/xlink" version="1.1" fill="#f6bd60"><title>1</title><path d="M435.294,461.421l-5.984-3.16c.469-.745.792-1.258,1.32-2.1a12.355,12.355,0,0,1-1.895-2.224,12.861,12.861,0,0,1-.779-2.892l-1.852-.628v-2.347l2.388-1.139-1.453-2.919c1-.63,1.974-1.777,2.9-1.739,3.131.128,6.378-.963,9.408.683a3.4,3.4,0,0,0,1.494.289,56.9,56.9,0,0,1,10.931.939c4.573,1,9.4.815,14.1,1.268,1.671.16,3.3.723,4.959,1.039,1.5.285,3.256-.671,4.464,1.02.128.178.677.08,1.029.069,4.353-.142,8.435,1.236,12.637,2.032,3.841.727,7.71,1.342,11.5,2.315,7.8,2,15.7,3.587,23.389,6.1a76.123,76.123,0,0,0,9.218,2.593c.838.161,1.545,1,3.223,2.153H531.1l-.055.666,5.652,2.1c-.421.743-.82,1.448-1.176,2.075l1.292,1.92-5.4,3.859c-.257-.635-.506-1.252-.88-2.178l-2.215.994c-.615-.24-1.368-.535-2.122-.827s-1.527-.588-1.964-.756l-3.346.887c-.872-.871-1.508-1.508-2.145-2.145-3.2,2.448-6.095-.508-9.159-.539-.623-.006-1.238-.652-1.861-.66-3.807-.051-7.362-1.216-11.012-2.1-3.344-.81-6.889-.765-10.332-1.2-2.026-.254-4.031-.68-6.037-1.069s-4.306.963-6.082-1c-.167-.184-.682-.05-1.035-.073-5.613-.359-11.232-.659-16.838-1.11-2.207-.178-4.375-.84-6.581-1.012a53.723,53.723,0,0,0-7.019-.012C440.585,460.717,438.392,461.07,435.294,461.421Z"/><path d="M258.856,452.347l-4.863-2.942c1.669-4.53,1.669-4.53-3.757-7.168l-2.261,2.261c-.442-.681-.884-1.364-1.517-2.341,1.7-1.607,1.65-3.648-.29-5.551,1.585-1.4,2.918-2.586,4.646-4.119l3.032-.149c.131-.612.236-1.1.345-1.617.269-.138.568-.424.863-.42,1.577.021,3.042-.809,4.429-.959,6.368-.689,12.514-3.1,19.081-2.388,1.593.173,3.815-1.464,4.829-.82,1.741,1.1,2.73-.414,4.088-.239a22.956,22.956,0,0,0,5.388,0,9.183,9.183,0,0,0,2.638-1.176l1.008.923a15.954,15.954,0,0,1,10.934.18c.14-.086.851-.9,1.549-.892,5.145.076,10.286.426,15.43.467,3.2.025,6.4-.4,9.6-.486a12.822,12.822,0,0,1,3.089.756l.824-.745,1.25,1.11c3.262-1.86,6.686-1.068,10.088-1.012,0,.761,0,1.12,0,1.481-.9.461-1.791.919-2.8,1.434l-1.006-.888c-3.881,2.049-8.226.578-12.34,1.853,1.1.1,2.329.559,3.258.211,1.334-.5,2.106,1.749,3.618.351.551-.509,2.144.107,3.962.274l1.253-.733c.6.547.986.9,1.373,1.253,1.154-1.712,2.87-.9,4.361-1,.536.537,1.046,1.046,1.763,1.763l-3.444.674.026.583,4.6.333c-.558,1.8-1.036,3.344-1.638,5.285l-13.638-1.364-3.514,3.355c-2.5-.619-3.435-2.613-4.605-4.367l-1.907,1.944-4.561-.8-2.074,3.321H318.4l-1.718,2.035h-4.932c-.165-.473-.385-1.1-.779-2.224l-6.373,1.881c-1.488-.193-2.948-.456-4.42-.553-1.434-.095-3.232-.557-4.237.105-1.514,1-2.955.867-4.5.96-1.574.1-3.412-.235-4.642.475-1.153.666-2.12-.792-3.343.459-.758.775-2.954.144-4.54.912l3.525.691c-2.777,2.094-4.886-.332-7.2-.512-2.634-.206-4.487,1.861-7.035,1.759l1.954.951c-.2.222-.423.654-.6.635-.837-.094-1.658-.33-2.491-.477a6.381,6.381,0,0,0-3.247.044l2.774,1.33h-5.266C260.488,449.794,259.77,450.916,258.856,452.347Z"/><path d="M262.5,160.079l3.839,2.451-2.266.771c.063.244.055.651.2.717,1.211.551,2.45,1.038,3.681,1.545-1.378,1.891,1.3,3.634-.062,5.259l-2.654,3.382c-4.967-2.308-10.079-1.849-14.836-1.171-3.667.522-7.292.537-10.923.9-1.833.185-3.511,1.529-5.5,1.009a20.793,20.793,0,0,1-2.235-.861c-1.179,3.165-3.78,3.212-6.982,2.9l-1.2-3.392-3.937-3.643-.746,1.441c-4.666.927-8.683-.758-12.516,1.541l-1.585-1.156-5.275,1.288c-.47-.982-.805-1.68-1.242-2.594-.314.861-.541,1.485-.92,2.527l-4.37-1.265c-.305.626-.655,1.342-1.139,2.334l-2.215-1.1c-2.2,1.886-4.983.439-7.095.912l-2.625-1.326c-.332.924-.557,1.549-.724,2.015l-12.334,1.521c-.285.781-.512,1.405-.829,2.276l-1.139-2.344c-2.362-.063-2.841,2.5-4.853,3.4L155.786,177l-.262-2.758c-1.5-.754-4.179.11-4.222-2.842,1.1-.744,2.2-1.487,3.564-2.409l-2.17-.722c.106-2.263,1.854-3.139,3.823-4.126,1.45,0,3.754.681,4.917-.18,1.32-.978,2.491.224,3.757-.765,1.176-.919,3.39.508,4.966-1.015a2.608,2.608,0,0,1,2.525-.131c1.482,1.122,2.7-.011,4.021-.057,1.8-.063,3.6-.016,5.4-.016,1.62,0,3.626.6,4.777-.131,2.114-1.351,4.232-.119,6.349-.8s4.67.107,6.963-.222c2.27-.326,4.3.955,6.722.223,2.309-.7,5-.01,7.513-.191a66.615,66.615,0,0,0,7.114-1.057c2.362-.432,4.92,1.03,7.188-.985.6-.537,2.088-.081,3.169-.081,7.2,0,14.406-.122,21.6.059A76.224,76.224,0,0,1,262.5,160.079Z"/><path d="M425.727,510.715,421.977,513l4.442,1.909c-.395.977-.643,1.592-1.029,2.548,2.835,2.739-1.386,4.234-1.752,6.982l-8.008-4.107c-.116.338-.32.937-.667,1.957a148.862,148.862,0,0,0-25.653-2.971l3.279-.641-.028-.5h-8.353l-.688,1.9h-2.184c-3.779,0-7.571-.184-11.335.054-3.449.219-6.869.9-11.048,1.473-1.987.924-4.258,3.35-8.251,2.626l-2.538-3.066.757-1.485-4.74-7.074,2.518-7.863c2.508-2.146,6.3-2.861,9.949-2.959,10.252-.278,20.517-.15,30.775-.049a32.621,32.621,0,0,1,5.492,1.03c1.84.343,3.891-.76,5.573.962.358.368,1.368.1,2.078.124,5.687.215,16.639,3.305,22.737,6.378A13.541,13.541,0,0,0,425.727,510.715Z"/><path d="M509.6,159.34l-2.565.889,3.644,2.715-1.143,1.785,2,.964v1.191l-2.144,1.005,1.036,1.176-3.117,1.614c-7.613-.485-15.738,1.019-23.83-.586l2.1,1.011c-3.226,2.275-6.256-1.525-9.417-.247-.08.144-.238.305-.205.391.06.154.254.25.36.393.177.24.328.5.9,1.372l-6.987-1.135,1.245,1.436c-1.778,1.963-3.334-.833-5.508-.431l1.165,1.577c-2.77.9-5.444,2.264-8.225,2.535-3.177.309-4.611,3.629-7.471,3.48-.583,2.2-1.1,4.151-1.648,6.223H445.95c-.406-.407-1.385-.95-1.351-1.421.254-3.527-3.627-5.233-3.47-8.922.267-6.293,2.8-11.172,8.785-14.35a41.551,41.551,0,0,1,13.309-4.485c2.742-.421,5.478-.7,8.2-1.08s5.4-1.094,8.22-.979c2.7.11,5.405.024,8.108.024a70.493,70.493,0,0,1,8.64.069c3.865.482,7.679,1.4,11.488,2.259C508.483,157.948,508.939,158.728,509.6,159.34Z"/><path d="M387.98,373.877H384.3c-.583-2.477-1.126-4.78-1.714-7.275h-2.5c-1.808-3,1.669-5.43.475-8,1.933-2.819,4.772-3.381,7.641-4.1,5.76-1.434,11.69-1.5,17.464-2.385,7.316-1.115,14.559-.97,21.761-.656a97.571,97.571,0,0,1,25.789,4.2,10.658,10.658,0,0,1,2.34,1.634l-2.121.7c.04.242-.009.619.138.724,1.247.9,2.53,1.749,3.906,2.684l-.952,1.164c.387.681.784,1.382,1.226,2.161l-2.432,1.14,1.042,1.2c-2.362,1.029-4.213,2.119-7.215.687-2.956-1.41-6.8-1.142-10.262-1.265-5.042-.178-10.1.009-15.143-.072-2.047-.033-4.142.52-6.116-.958-.713-.534-2.261.049-3.649.136l1.662,1.93c-2.553,0-4.68.15-6.775-.045a54.852,54.852,0,0,1-6.015-1.29l1.654,1.984c-2.553,1.136-4.912.169-8-1.147.786,1.3,1.069,1.77,1.694,2.806l-5.992-1.262,1.637,1.944-3.885.377Z"/><path d="M325.843,364.1l-2.145-2.144c-.315,1.024-.633,2.055-.69,2.242l-8.851-1.331,1.606,2.085-1.638.522-1.393-2.818-1.807,2.472-10.814-1.077c-.362.591-.53.752-.5.838.056.154.25.25.358.392.182.241.341.5.9,1.327l-9.435-1.445,1.514,1.783c-2.1,1.825-4.053-.244-6.618-.7l1.225,2.052c-2.555,1.318-4.869-2.249-7.445-.242l2.378,1.162-6.313,1.376c-2.469-1.139-4.44-3.556-5.056-7.289l-2.97-.221c.183-1.265.36-2.5.6-4.184l-.72-.944a5,5,0,0,1,.547-1.126,17.885,17.885,0,0,1,11.173-5.766c2.919-.39,5.956-.216,8.738-.951,6.323-1.669,12.685-.775,19.022-.944,6.3-.169,12.607-.195,18.9.014a22.508,22.508,0,0,1,13.218,4.687l-1.2,1.312c.012,2.011,1.613,2.4,3.235,3l-1.085,1.387,2.291,1.552-1.538,2.833-2.776,1.415C334.537,363.082,330.174,364.941,325.843,364.1Z"/><path d="M409.1,68.437l-.54,3.637c-2.006-1.548-3.738,1.436-6.144-.818l-.33-1.044h-3.6L396.4,72.761c-.431-1.224-.651-1.85-.971-2.761l-3.148.169,1.6,1.777-4.2.367c-.136.234-.3.395-.265.482.058.153.252.249.358.392.179.24.334.5.556.834-4.634,1.5-8.946-2.041-13.917-.388l1.137,1.632c-1.479,0-3.205.521-3.989-.116a4.077,4.077,0,0,0-4-.716c-4.678,1.612-9.8.931-14.4,3.054-1.156.534-2.907-.219-4.623-.406-1.017,1.695-2.162,2.306-5.715,2.49l2.485-2.888h-3.073l-.586-3.2-2.979-.463c.467-2,.887-3.8,1.38-5.913,2.553-1.866,5.95-2.784,9.179-4.137,2.134-.9,4.74.676,6.358-1.605,3.632-.361,7.288-.562,10.892-1.111,12.42-1.892,24.918-.617,37.365-1.153,2.073-.089,4.088,1.57,6.13.1,1.821,2.24,4.644.373,6.862,1.747,1.759,1.09,4.137,1.182,6.706,1.836l-2.869,1.344c.649,2.263,3.187,1.953,4.363,3.344l-1.865.76c.384.693.763,1.376,1.151,2.074a14.251,14.251,0,0,1-5.876,2.032c-2,.328-3.748-1.808-5.638-.219Z"/><path d="M366.82,123.985l-1.528,2.466,3.491,2.356c-.3.361-.506.615-.878,1.068a13.314,13.314,0,0,1,.826,1.9,8.263,8.263,0,0,1,.027,1.9l-4.083,2.2c-2.731.456-3.792-2.773-6.027-1.113-1.9-2.033-3.68.08-5.518.125-5.039.123-10.088.162-15.123-.021-1.817-.065-3.608-.855-5.516-1.341-.313.915-.527,1.544-.742,2.17-1.442,1.547-2.729-1.255-4.555-.021-1.248.842-3.467.459-5.218.283a39.476,39.476,0,0,1-5.408-1.365l1.532,2.721c-4.1-.924-7.859.814-11.689-1.172-1.521-.789-3.794-.13-5.762.658l5.356.561-.02.519H298.62l-2.091-2.286c.367-.9.662-1.625,1.035-2.539l-2.1-.433c-.146-.846-.317-1.836-.483-2.8l-1.919-.677v-2.693l10.819-.335,0-.75H294.7a1.969,1.969,0,0,1,.963-3.227c2.257.387,3.937-1.245,6.039-1.3,9.938-.283,19.871-.707,29.807-1.034,2.7-.089,5.407-.126,8.1.01,5.617.283,11.264.421,16.827,1.161C359.856,121.422,363.143,122.879,366.82,123.985Z"/><path d="M220.415,77.967l-5.924,2.768-2.156-2.157c-.237.68-.424,1.219-.7,2.025h-4.89l-.5-1.89c-1.023.313-1.465,1.308-2.384,1.987H200.3l-.838-2.35-.758,2.019a20.21,20.21,0,0,1-8.887,1.618c-1.46-.062-2.951.618-4.455.967l-1.08-.987-1.354,1.2-3.664-1.887-4.777.865-.658-2.138c-3.031-.2-5.117-2.268-7.433-3.991l1.606-1.606h4.749l.076-.609-5.7-1.671,1.985-2.114c4.5,0,9.167.072,13.826-.03,2.4-.053,4.91.64,7.144-1.024,1.165-.867,2.413,1.587,3.521.314,1.26-1.447,2.111,1.54,3.545.026.589-.621,2.553.165,3.885.118,1.758-.063,3.51-.457,5.265-.463,11.716-.044,23.439.2,35.146-.122,5.61-.156,11.193-1.34,16.858-.983,2.368-1.662,4.964-.9,7.63-1.118-.961,3.216-3.722,1.654-6.527,3l8.211.458-3.064,1.672c.579.767,1.122,1.4,1.568,2.1.412.644.721,1.355,1.48,2.819L264.4,75.144l-.948,2.3-1.85-1.068-1.608,1.108-1.057-.96-1.98,1.981-3.481-1.794-.928,1.913-1.255.058-.691-1.991H247.93c-.146.422-.363,1.05-.723,2.1L242.559,77.7l-.894,2.242-2.184-3.318-1.941,3.031c-2.838.565-3.848-.9-4.409-3.443l-2.39,3.332H226.3l-.587-1.75h-2.088l1.161,1.378C223.992,80.378,222.678,79.969,220.415,77.967Z"/><path d="M482.744,425.783l-1.95,4.041-.848-2.509c-1.052-.62-3.423,0-4-1.941-.292-.981.3-2.226.523-3.524l-4.043-1.837c.27-2.761.552-5.652.881-9.01l-1.063-1.2,3.333.613c.113-.95.262-2.207.481-4.053,2.6-1.119,5.45-2.526,8.428-3.583,3.042-1.079,6.568-.97,9.372-2.174,3.228-1.385,6.83,1,9.608-1.657l1.127,1.043c3.857-2,7.967-.717,12.908-1.232l-1.575,1.773,1.412,1.6c-3.337-.215-6.284.865-9.047-1.084a18.511,18.511,0,0,1-9.884,2.217c-4.175-.313-8.02,1.021-12.454,2.8l3.537,2.66c.227-.668.441-1.3.654-1.922a6.4,6.4,0,0,1,.95-.313c2.368-.4,4.745.517,7.208-.942,1.759-1.042,4.548.653,6.505-1.217.095-.09.351,0,.53-.013,5.078-.358,10.152-.8,15.236-1.032,1.49-.07,3.227-.7,4.489.93.21.272,1.1.271,1.536.075,4.961-2.252,10.182-.5,15.247-1.045a15.471,15.471,0,0,1,1.642-.008l2.059,2.094h6.371l1.993,1.78-2.355.818,3.6,2.337-5.333,3.857c-2.941-.909-5.343-4.078-8.588-1.211-.829-1.969-1.6-4.023-4.6-2.927-.066.413-.145.9-.226,1.409l2.237,1.079a11.3,11.3,0,0,1-1.046.5c-1.943.665-3.461-2.561-5.794-.383-1.45,1.353-3.86.449-5.928,1.23-2.628.991-5.914.24-10.156.24l4.1-1.917h-5.88c.324.855.633,1.674,1.068,2.823H508.5l-3.315,1.7a20.65,20.65,0,0,1,3.1-3.2c-2.076-1.575-3.438.716-5.406.9l1.25,1.587c-2.387.474-4.605.973-6.844,1.34a5.692,5.692,0,0,0-4.249,2.914l-3.188-.928-7.391,5.7Q482.6,425.372,482.744,425.783Z"/><path d="M249.127,288.057l1.835.913-.254.666c-1.758,0-3.94-.649-5.172.156-1.728,1.13-2.746-.418-4.072-.159-1.674.326-3.312-.309-5.125.739a4.9,4.9,0,0,1-5.622-.53c-1.694.318-3.193.543-4.663.892-1.327.315-2.6,2.238-3.948.043-1.059,1.775-2.22.855-3.375.13-1.234,1.626-2.985.705-4.5.861-1.426.147-2.9-.1-4.317.064a24.941,24.941,0,0,0-6.017,1.119c-2.642,1.011-5.367,1.03-8.121,1.389a14.536,14.536,0,0,0,9.057.412,29.889,29.889,0,0,1,5.6-.778c2.736-.349,5.319-1.329,8.2-1.213,2.531.1,5.348,1.186,7.715-.819,1.165.985,2,1.136,3.49.025.955-.709,3.186-.284,4.542.316,1.108.49,2.288-.861,3.277.533.3.425,1.848.363,2.586.016,3.89-1.825,7.8-1.18,11.76-.455.629.115,1.39-.6,2.052-.539,4.4.413,8.866-.947,13.235.637.7.255,1.738-.6,2.633-.641,2.338-.1,4.692.1,7.024-.065a21.106,21.106,0,0,1,10.332,1.991l-5.864.316-.173.518a13.588,13.588,0,0,0,1.386.441c.493.1,1,.122,1.655.194-.556,1.119-1.035,2.085-1.513,3.048-.445-.4-.838-.747-1.4-1.251l-2.519,1.35.726-4.339-1.067-1.067-7.138,1.438,1.393,1.5,2.442-.972c1.564,2.622-1.208,2.011-1.852,2.928l1.327,2.743c-.94-.26-1.986-.339-2.031-.6-.439-2.465-1.845-3.2-4.142-2.627-.245.629-.486,1.249-1,2.584-.776-1.79-1.324-3.052-2-4.617l3.578-.519.032-.66-5.168-.293c.2.6.316.957.575,1.739l-1.18,2.718c-2.607-.326-5.37.6-8.494-1.107.507,1.264.836,2.087,1.228,3.066h-2.818l-1.766-5.147h-1.6l1.119,2.631-6.028,1.514-2.355-2.013-2.016,4.285-1.053-2.153c-1.554,2.977-3.981,3.651-7.129,2.958.519-.884.926-1.576,1.623-2.76l-4.693-.272v3.15L216.413,304.1c-.186.544-.4,1.173-.719,2.1-3.1-2.3-6.547-1.1-9.849-1.477-.327-.67-.661-1.356-1.1-2.25l-.781,2.119-2.517-1.252c-.214,1.243-.378,2.193-.442,2.568l-4.912,5.5c-.321-.86-.553-1.483-.82-2.2l-2.174,3.2c-1.639-2.279-2.932-4.462-.428-6.763l-1.716-1.8-1.945,1.123-2.036-1.75c.271-3.274-.742-6.816,1.346-9.968,4.145-2.775,9.112-2.4,13.632-3.685,4.885-1.389,9.8-.881,14.709-1a4.587,4.587,0,0,0,3.423-1c.6-.537,2.133-.3,3.137-.024.678.188,1.112,1.472,1.932.182,2.4.817,4.674-.632,7.118-.334a71.893,71.893,0,0,0,8.639.08h8.109Z"/><path d="M344.846,216.619v-2.478l-3.512-.536c.679-1.153,1.172-1.993,1.324-2.251,3.171-2.583,6.043,3.107,8.1-.38a46.266,46.266,0,0,0,5.541.738c13.686.053,27.375-.1,41.059.094,5.429.076,10.847.864,16.634,1.359l1.17,1.169c-.206.218-.411.624-.619.626-4.321.037-8.644.02-12.966.034a6.051,6.051,0,0,0-2.518.464c2.021.862,4.128.548,6.193.6,2.16.054,4.342-.171,6.477.067a53.58,53.58,0,0,1,6.318,1.506L415,218.72l2.38,1c.029.645.06,1.342.094,2.1a13.221,13.221,0,0,1-2.9,1.755,8.564,8.564,0,0,1-3.22.046c-2.18-.212-4.528.737-6.51-.9-2,1.847-4.425.7-6.646.877-2.325.189-4.679.042-7.374.042L389,226.115l-4.248-1.264c-.113.071-.835.919-1.5.88-2.05-.122-4.1.555-6.185-.69-2.123-1.268-4.614.234-7.089-.142-4.191-.637-8.549-.175-12.74-.175-.312.887-.533,1.514-.8,2.255-.57-.155-1.179-.141-1.5-.439-1.292-1.2-2.413-2.76-4.59-1.293l2.357,1.123c-2.787,1.267-5.124.232-7.619-.891-.068-.765-.144-1.618-.22-2.471-.637-.636-1.274-1.273-1.994-1.994l1.052-1.287-3.54-2.255c.563-.829,1.129-1.662,1.658-2.439Z"/><path d="M256.057,231.943l-2.172.825,1.685,1.826,1.177-1.176,1.694,3.26-1.475,2.891c-1.431.427-3.037,1.315-4.637,1.3a36.526,36.526,0,0,0-12.115,2.12c-2.187.738-4.866-.23-7.075,1.205-4.265-.7-8.279,1.4-12.524,1.126-1.038-.067-2.331.9-3.122.541-1.487-.674-2.285.93-3.657.578-1.077-.275-2.538-.563-3.389.819-4.53-.168-8.623,1.953-13.063,2.476-3.765.444-7.4,2.026-10.617,2.967-1.035,1.452-1.8,2.519-2.627,3.683-.7-.418-1.295-.569-1.529-.944-.968-1.548-1.828-3.164-2.745-4.786h-2.588c.182-1.327.351-2.56.585-4.271l-.692-.834c1.1-3.568,4.3-4.023,6.705-4.433,4.206-.715,8.216-2.18,12.569-2.531,4.733-.383,9.485-1.423,14.212-2.2a42.757,42.757,0,0,1,8.234-.772c1.536.047,2.595-.853,3.889-1.09a27.9,27.9,0,0,1,4.851-.069c1.436-.006,3.757.5,4.137-.137,1.019-1.714,2.559.858,3.285-.766.106-.236.981-.13,1.5-.177,2.571-.232,5.088.225,7.725-.927,2.243-.98,5.119.369,7.65-1.136,1.031-.613,2.731-.1,4.127-.1Z"/><path d="M506.817,352.263H503.11v-3.555a14.1,14.1,0,0,0-1.729-1.592,5.27,5.27,0,0,0-1.582-.394V340c1.781-4.239,5.6-6.885,9.647-9.245a72.14,72.14,0,0,1,16.491-7.13,91.3,91.3,0,0,1,12.97-2.84c3.66-.483,7.382-.271,10.906-1.014a34.693,34.693,0,0,1,9.253-.843v2.119h-6.287l-.022.764H559.9c-.337,1.5-.337,1.5-.748,1.943L561.758,325l-2.618,3.108c-4.077,1.25-7.729,1.1-11.139,2.409-2.242.863-4.973-.707-7.03,1.309-7.809.97-14.662,4.57-21.6,7.912-1.812.873-3.44,2.124-5.245,3.014-3.476,1.714-5.675,4.265-6.087,8.235C508,351.407,507.321,351.759,506.817,352.263Z"/><path d="M594.72,506.009l.194,1.847c-2.806.809-5.852-.077-8.681,1.175,1.338.074,2.675.18,4.014.215,1.417.038,2.836.009,4.109.009l1.661,1.753-2.508.9,2.664,1.128c-.37,1.194-.754,2.428-1.146,3.69l-12.978,1.6c-.046.226-.147.719-.336,1.643-2.181-.315-4.456-.786-6.753-.938-2.512-.166-5.044-.038-7.624-.038l-2.277,2.169c-1.878.128-3.569-.888-5.666-.183-1.436.482-3.438-.721-5.53-.312.661.345,1.322.691,2.637,1.376h-7.346l-3.12,2.907-2.794-3.4c-.477-1.336-.928-2.6-1.381-3.864l1.112-1.8h-3.755c-1.374-1.914-.445-3.13.852-4.289l3.958-.439-.009-.616-4.231-.342c0-.595-.209-1.269.034-1.541a8.05,8.05,0,0,1,6.454-2.678C562.308,506.046,578.342,506.009,594.72,506.009Z"/><path d="M349.08,303.416c.3-2.145.536-3.821.883-6.3.216-.163,1.178-.892,2.73-2.07,7.865-2.1,16.775-.75,25.605-1.065a13.179,13.179,0,0,1,5.554.9c1.864.742,4.3-.116,6.4.247,1.753.3,3.334,1.491,5.069,2.041,1.764.559,3.759.527,5.4,1.287a32.425,32.425,0,0,1,4.96,3.474l-.912.913c.978,1.951,1.928,3.843,2.9,5.772l-2.933,2.861c-4.268-1.243-9.037-1.633-13.189-4.463-1.852.678-3.8,2.112-6.037.079-.429-.389-1.936.189-2.831.582-1.481.651-2.712.689-3.688-.926a9.334,9.334,0,0,1-7.4.611c-2.9-.955-6.352-.212-9.66-.212l-6.151,4.473c-1.715-1.584-3.666-2.509-3.348-5.227.093-.8-.843-1.793-1.472-2.564C350.721,303.532,350.022,303.6,349.08,303.416Z"/><path d="M512.557,265.228c-.43.623-.809,1.174-1.455,2.113l2.525,1.039v4.775l-3.512,2.185L501.39,272.5c-.981.329-2.353,2.054-4.142.2-.38-.394-1.3-.335-1.977-.363-11.347-.477-22.695-.935-34.43-1.413-1.848-2.89-2.634-6.912-7.156-9.977l6.907-.749.051-.53L456.027,259l1.8-3.019c1.817.614,3.836-.771,5.5,1.037.262.283,1,.144,1.527.163,4.362.163,8.7.39,13.063.816,4.672.456,9.469.758,14.06,1.524C499,260.689,506.246,261.567,512.557,265.228Z"/><path d="M329.292,259.17l-1.775,2.326h-7.826c-3.929-2.389-3.462-7.235-6.966-10.744h4.96l.109-.752-2.947-.583c-.061-.755-.139-1.729-.245-3.055,6.152,0,12.138-.649,17.892.227,3.853.587,7.669.376,11.44.926,3.987.581,7.9,1.71,11.833,2.631a45.9,45.9,0,0,1,10.108,3.312c-.5.859-.838,1.435-1.184,2.029l3.048,2.091-1.062,1.188,1.412,1.941-4.129,3.107-5.391-1.681c-4.559-1.37-9.762.9-13.877-2.455a8.889,8.889,0,0,1-2.887.682c-1.335-.161-2.6-2.171-3.94.006-1.18-1.873-2.241-.229-3.459-.083C332.838,260.47,331.147,259.624,329.292,259.17Z"/><path d="M219.52,382.267l-2.367.84c4.017.98,3.42,4.487,4.653,6.922l-3.024,4.6a5.694,5.694,0,0,1-4.223-3.234c-.39.346-.783.7-1.021.909l-5.988-1.427-1.784-3.049c-2.4.8-4.944,1.586-7.449,2.486-2.345.842-4.649,1.8-6.973,2.706v1.071l2.316,1.115c-.237.547-.518,1.421-.622,1.4-1.977-.392-1.329,1.716-2.254,2.3l-.872-.912-2.325,1.192-.99-2.4-1.518,1.205c-.65-1.571-1.008-3.223-1.932-4.45-.97-1.289-2.246-2.281-1.435-4.086l-3.406-.6c1.254-3.624,1.254-3.624-.168-6.8,2.085-1.215,4.155-3.307,6.379-3.487,2.616-.211,5.144-2.45,8.261-.731l-1.55,2.46h-4.673l-1.957,2.464.867.914c.255-.255.49-.709.767-.735,4.924-.48,9.85-.943,14.783-1.3.56-.04,1.168.593,1.644.854l2.7-1.389c-3.36-2.271-6.886-2.236-10.653-.831,0-.9,0-1.744,0-2.594.125-.127.252-.365.38-.366,4.322-.031,8.923-.971,12.885.217C211.8,378.682,216.5,378.522,219.52,382.267Z"/><path d="M245.214,540.905c-.742-.434-2.206-.775-2.641-1.636a61.318,61.318,0,0,1-3.56-8.746c-.317-.981.286-2.261.538-3.84l-.707-.8,3.812-2.465h38.065l1.675,1.794-3.742.563,5.739,2.371-4.336.875-.01.492,2.876.454c.947,1.735.266,3-1.167,4.072-9.362-.107-18.646,1.937-28.049,1.18-.357-.029-.718,0-1.077,0Z"/><path d="M557.136,205.842a65.947,65.947,0,0,1,7.408-1.035c2.162-.062,4.191-.888,6.615.248,2.03.952,4.861.2,7.395-.326l-5.609-2.085c2.17-1.124,3.736-.435,5.556.332,1.44.606,3.55-.4,4.366,2.057l-3.249.467c.479.562.717,1.032,1.1,1.254,1.156.672,2.368,1.248,3.568,1.866l1.3-1.062c1.205.391,1.592,1.58,1.551,4.882-4.529.434-6.694-.106-11.678-2.983l-2.144,1.261-2.36-1.291L569.4,210.6l-4.343-.961c-.979,2.157-2.975-1.639-4.3.808-.488.905-2.763.846-4.294,1.246l-1.178-1.1c-.187.5-.364.962-.732,1.933l-5.093,1.9v-4.67l-3.13-.338,2.258-1.462-1.634-3.387,9.822-2.265,1.493,1.59-3.887.6Z"/><path d="M639.38,307.406l-3.049,1.44,5.989.34c-.436-1.068-.771-1.885-1.156-2.825l5.781-1.338c-.293.87-.536,1.593-.9,2.683l1.406.539,1.249,2.441-7.233,3.168-11.528,2.933c-.227-.679-.434-1.3-.642-1.92-1.36-.614-2.72-1.229-4.485-2.029l6.438-2.384-4.712-.395-.473-.565,2.057-.393C631.394,308.747,635.018,305.829,639.38,307.406Z"/></svg>