<svg id="Group_1" data-name="Group 1" xmlns="http://www.w3.org/2000/svg" width="1087" height="800.5" viewBox="0 0 1087 800.5">
  <rect id="Rectangle_1" data-name="Rectangle 1" width="910" height="490" transform="translate(117.5 105.5)" fill="#f2f2f2"/>
  <rect id="Rectangle_2" data-name="Rectangle 2" width="294" height="361" transform="translate(205.5 189.5)" fill="#f6bd60" opacity="0.3"/>
  <rect id="Rectangle_3" data-name="Rectangle 3" width="235" height="13" transform="translate(612.5 215.5)" fill="#3f3d56"/>
  <rect id="Rectangle_4" data-name="Rectangle 4" width="342" height="13" transform="translate(612.5 239.5)" fill="#3f3d56"/>
  <rect id="Rectangle_5" data-name="Rectangle 5" width="235" height="13" transform="translate(612.5 297.5)" fill="#3f3d56"/>
  <rect id="Rectangle_6" data-name="Rectangle 6" width="235" height="13" transform="translate(612.5 393.5)" fill="#3f3d56"/>
  <rect id="Rectangle_7" data-name="Rectangle 7" width="342" height="13" transform="translate(612.5 321.5)" fill="#3f3d56"/>
  <rect id="Rectangle_8" data-name="Rectangle 8" width="342" height="13" transform="translate(612.5 345.5)" fill="#3f3d56"/>
  <rect id="Rectangle_9" data-name="Rectangle 9" width="342" height="13" transform="translate(612.5 369.5)" fill="#3f3d56"/>
  <rect id="Rectangle_10" data-name="Rectangle 10" width="123" height="34" transform="translate(612.5 451.5)" fill="#f6bd60"/>
  <rect id="Rectangle_11" data-name="Rectangle 11" width="294" height="361" transform="translate(224.5 170)" fill="#3f3d56"/>
  <path id="Path_1" data-name="Path 1" d="M533,419.358c0,70.111-41.68,94.591-93.094,94.591s-93.094-24.48-93.094-94.591,93.094-159.3,93.094-159.3S533,349.247,533,419.358Z" transform="translate(-56.5 -49.75)" fill="#f6bd60"/>
  <path id="Path_2" data-name="Path 2" d="M380.014,453.474l.954-58.677,39.679-72.591-39.53,63.387.429-26.384,27.347-52.519-27.234,45.537h0l.771-47.452,29.284-41.812-29.163,34.35.482-87.009L380.006,325.49l.249-4.752-29.773-45.572,29.3,54.693-2.774,53-.082-1.407L342.6,333.49l34.219,52.927-.347,6.628-.062.1.028.544L369.4,528.142h9.4l1.129-69.448,34.134-52.8Z" fill="#3f3d56"/>
  <ellipse id="Ellipse_1" data-name="Ellipse 1" cx="131" cy="17" rx="131" ry="17" transform="translate(0.5 766.5)" fill="#3f3d56"/>
  <path id="Path_3" data-name="Path 3" d="M126.123,362.626l-4.352,10.335,4.9,66.9s-2.72,3.808,0,6.527,2.176,3.808,2.176,3.808-4.352,0-2.176,3.264,2.176,4.9,2.176,4.9l-1.088,3.264s2.176,2.72,2.176,4.9,14.142,69.08,14.142,69.08l13.6-26.653-7.615-106.068Z" transform="translate(-56.5 -49.75)" fill="#f6bd60"/>
  <path id="Path_4" data-name="Path 4" d="M269.208,529.983s23.932,17.627,24.775,31.724-30.85-20.992-31.065-24.946S269.208,529.983,269.208,529.983Z" transform="translate(-56.5 -49.75)" fill="#ffb9b9"/>
  <path id="Path_5" data-name="Path 5" d="M119.052,796.69l-5.983,19.582s-8.7,19.038,3.264,21.758,23.389-7.615,23.389-7.615V817.36l4.352-20.67Z" transform="translate(-56.5 -49.75)" fill="#2f2e41"/>
  <path id="Path_6" data-name="Path 6" d="M216.961,796.69s-2.72,36.988,3.264,39.164,27.2,2.72,27.741,0,7.071-5.439,2.176-9.247-8.159-26.109-8.159-26.109Z" transform="translate(-56.5 -49.75)" fill="#2f2e41"/>
  <path id="Path_7" data-name="Path 7" d="M162.023,446.393v16.318s-17.95,37.532-24.477,96.821S108.717,799.41,114.156,802.674s64.185,5.439,65.817,1.088,3.264-131.634,3.264-131.634l20.126-89.75s3.808,32.092,7.071,37.532-5.439,182.22,0,184.94,78.871,7.615,77.783-1.088-25.565-244.773-25.565-244.773-12.511-111.508-16.318-112.6-38.62-2.176-44.059-1.088S162.023,446.393,162.023,446.393Z" transform="translate(-56.5 -49.75)" fill="#2f2e41"/>
  <circle id="Ellipse_2" data-name="Ellipse 2" cx="31.005" cy="31.005" r="31.005" transform="translate(115.858 199.736)" fill="#ffb9b9"/>
  <path id="Path_8" data-name="Path 8" d="M209.89,306.6s-15.774,24.477-11.967,31-40.252-6.527-40.252-6.527,26.653-32.636,26.109-36.444S209.89,306.6,209.89,306.6Z" transform="translate(-56.5 -49.75)" fill="#ffb9b9"/>
  <path id="Path_9" data-name="Path 9" d="M242.526,343.044S213.7,333.8,209.89,329.989a52.316,52.316,0,0,1-6.527-8.159s-34.812-4.9-35.9-4.9-9.247,9.791-11.423,11.967-29.917,16.862-29.917,20.67-4.352,23.389-4.352,23.389,9.791,20.126,15.774,24.477,7.615,3.264,8.159,10.335,8.159,18.494,8.159,18.494,4.9,12.511,3.808,16.318-5.983,7.071,5.439,5.983,67.993,2.176,67.993-3.808-10.879-63.1-10.879-63.1Z" transform="translate(-56.5 -49.75)" fill="#f6bd60"/>
  <path id="Path_10" data-name="Path 10" d="M232.192,344.132l10.335-1.088s3.808,2.176,4.352,23.389.544,72.344,4.352,76.7,19.582,71.8,19.582,71.8,4.352,1.088,4.352,4.9,4.9,7.071,2.72,11.423,2.176,3.264-.544,5.983-15.774,8.159-16.318,4.9,1.632-3.808-.544-4.9-2.176-1.632-2.72-5.439-5.439-7.615-4.9-9.247-23.933-48.955-23.933-50.586-1.632-7.615-3.808-8.7-5.439-2.176-3.808-4.9-4.352-84.311-4.352-84.311Z" transform="translate(-56.5 -49.75)" fill="#f6bd60"/>
  <path id="Path_11" data-name="Path 11" d="M229.581,260.828c-9.508-10.321-24.438-15.8-38.131-12.729s-25.222,15.226-26.293,29.218c-.219,2.862-.037,5.785-.777,8.559-1.246,4.664-4.952,8.361-6.259,13.009-.875,3.113-.616,6.465-1.543,9.562-1.714,5.724-7.019,9.456-11.062,13.855a14.02,14.02,0,0,0-3.541,5.795,21.852,21.852,0,0,0-.268,5.9A41.057,41.057,0,0,1,130.7,362.636a70.654,70.654,0,0,1,13.7-7.963c-2.4,7.655-.206,16.713,5.843,21.986s15.737,6.091,22.277,1.443c3.885-2.762,6.409-7,8.819-11.113l9.126-15.571c1.651-2.816,3.374-5.715,6.011-7.639,2.1-1.529,4.643-2.342,6.753-3.852,5.322-3.808,6.751-11.261,5.76-17.73s-3.9-12.475-5.568-18.8c-1.32-5.005-1.734-10.741,1.235-14.981,3.941-5.628,12.039-6.346,17.393-10.652,2.016-1.621,2.917-3.593,4.36-5.622,1.333-1.873,1.673-1.2,3.738-1.287C235.816,270.617,231.683,263.109,229.581,260.828Z" transform="translate(-56.5 -49.75)" fill="#2f2e41"/>
  <ellipse id="Ellipse_3" data-name="Ellipse 3" cx="2.5" cy="6" rx="2.5" ry="6" transform="translate(143.5 235.5)" fill="#ffb9b9"/>
  <circle id="Ellipse_4" data-name="Ellipse 4" cx="32" cy="32" r="32" transform="translate(642 662)" fill="#f2f2f2"/>
  <circle id="Ellipse_5" data-name="Ellipse 5" cx="32" cy="32" r="32" transform="translate(0 32)" fill="#f2f2f2"/>
  <circle id="Ellipse_6" data-name="Ellipse 6" cx="32" cy="32" r="32" transform="translate(1023)" fill="#f2f2f2"/>
</svg>
