<?xml version="1.0" encoding="UTF-8"?><svg id="Layer_0_Image" data-name="Layer 0 Image" xmlns="http://www.w3.org/2000/svg" viewBox="0 0 800 600" x="0px" y="0px" width="800px" height="600px" xmlns:xlink="http://www.w3.org/1999/xlink" version="1.1" fill="#99bdb8"><title>1</title><path d="M318.883,532.612c-1.021-.8-2.755.373-2.671-1.673.007-.165-1.513-.216-2.133-.616a29.489,29.489,0,0,0-6.194-3.152,4.889,4.889,0,0,1-1.849-1.536c-2.3-2.7-4.667-5.316-7.871-6.975-.448-.232.484-2.289-1.208-.888-.226.187-1.038-.476-1.6-.521a5.285,5.285,0,0,1-3.775-1.921,6.742,6.742,0,0,1-1.045-2.054,49.642,49.642,0,0,0-1.714-5.114c-2.358-4.87-3.84-10.063-5.775-15.087-.692-1.8-1.158-3.679-1.8-5.5s-1.55-3.551-2-5.4a56.565,56.565,0,0,0-2.832-7.989c-1.022-2.49-1.689-5.125-2.541-7.686-1.744-5.242-3.249-10.584-5.365-15.671-1.173-2.819-1.03-5.707-1.685-8.52-.039-.17.139-.389.215-.585-2.256.174-1.5-1.942-1.906-2.886-1.61-3.768-2.735-7.736-4.215-11.568-.441-1.141-.405-1.155.473-2.849-.555-.3-1.56-.55-1.594-.9-.346-3.536-2.853-6.511-2.606-10.2.029-.427-.494-.884-.74-1.339-.306-.565-.883-1.166-.838-1.71.322-3.877-2.146-6.917-3.025-10.428-.529-2.11-.6-4.346-1.931-6.291-.46-.67.064-2.014.186-3.7-1.845-1.42-2.874-3.98-2.769-7,.009-.277.112-.628-.015-.821-2.853-4.311-2.255-9.817-4.9-14.216-.2-.337.376-1.142.626-1.824-2.088-1.487-2.723-3.838-3.261-6.383a76.643,76.643,0,0,0-2.539-8.509,90.009,90.009,0,0,1-3.253-11.556c-.243-1.254-.8-2.445-1.129-3.686-.28-1.049.054-2.313-.727-3.161-1.411-1.533.272-3.847-1.45-5.237.237-2.335-1.471-4.195-1.618-6.388-.153-2.269-1.311-4.333-1.472-6.432-.267-3.471-1.466-6.692-2.063-10.051-.533-3.006-.608-6.246-2.2-9.039-.254-5.275-2.794-10.016-3.533-15.2-.346-2.421-1.266-4.759-1.764-7.192a24.106,24.106,0,0,1-.666-3.851c-.017-.415.176-.99-.031-1.223-1.773-2-1.729-4.4-1.655-6.818-1.342-.88-.6-2.256-.826-3.406a19.344,19.344,0,0,1-.781-3.4c-.033-6.418-1.113-12.763-.983-19.215.108-5.414-1.36-10.871-.644-16.288.807-6.1.645-12.376,3.206-18.209a39.779,39.779,0,0,1,4.205-7.856,52.067,52.067,0,0,1,5.693-6.343,13.725,13.725,0,0,1,7.934-3.949,16.19,16.19,0,0,0,3.7-1.089A38.883,38.883,0,0,1,243.993,180a54.233,54.233,0,0,1,8.007-.72c3.134-.218,5.88,1.349,8.874,1.759.371.051.616,1.031.736,1.248.837-.059,1.622-.35,2.171-.107a30.889,30.889,0,0,1,3.7,2.127,17.733,17.733,0,0,1,2.912,1.974c.931.88,1.52,2.133,2.477,2.973.851.747,2.221.946,2.971,1.751,1.223,1.314,1.452,3.331,2.985,4.546.567.449.679,1.454,1.231,1.944,1.537,1.366,2.178,3.294,3.32,4.85,1.039,1.415.619,3.344,2.375,4.542,1.379.941,2,2.943,3.071,4.4a49.382,49.382,0,0,1,3.472,4.4c2.2,3.877,5.624,6.924,7.4,11.075.2.472.511,1.161.891,1.253,2.712.659,3.077,3.553,4.922,5.007-.22,1.309.649,1.217,1.518,1.248a1.248,1.248,0,0,1,.951.5c1.014,2.342,3.071,3.529,5,4.982,1.449,1.094,2.362,2.878,3.6,4.279a19.908,19.908,0,0,0,3.256,3.2c1.169.824,1.074,2.8,2.858,2.939-.381,2.233,2.228,2.293,2.762,3.777.587,1.632,2.6,1.75,3.17,3.627.426,1.405,2.206,2.4,3.383,3.576L335.851,265l.862-.768c-.014.677,1.83.452.815,1.774-.259.338.069,1.516.5,1.919,1.6,1.512,2.592,3.689,4.64,4.654,1.456.688,1.627,2.046,2.39,3.1,1.42,1.966,3.474,3.478,5.285,5.157.168.155.681.1.708.223,1.051,4.553,5.922,5.616,8.21,9.018,1.092,1.624,2.114,3.3,3.193,4.987.891-1.255,1.761-1.088,2.637-.121.124-.255.359-.5.329-.715-.243-1.693-.037-3.738-.933-4.98-1.25-1.733-.267-3.62-1.237-5.368-.9-1.626-.816-3.81-1.135-5.753a31.843,31.843,0,0,0-.891-5.462c-1.527-4.306-1.459-8.956-3.183-13.241-.815-2.027-.607-4.455-.94-6.69a9.661,9.661,0,0,0-.9-3.766c-.758-1.159-.29-2.553-.858-3.38-.721-1.051-.551-2.023-.751-3.053-.52-2.681-1.036-5.374-1.79-8-1.295-4.5-2.788-8.95-3.179-13.66l-1.306-3.347c-1.584-1.679-.983-3.993-1.672-5.96-.606-1.73-1.972-3.537-.819-5.609a1.068,1.068,0,0,0,.021-.865,44.427,44.427,0,0,1-4.1-13.334c-.017-.189.232-.515.171-.57-2.11-1.888-.778-4.9-2.285-6.971.319-4.324-2.051-8.29-1.69-12.628a4,4,0,0,0-.424-1.477c-.749-2.127-1.536-4.236-1.229-6.572a5.709,5.709,0,0,0-.764-3.427c-.524-1.022.191-2.261-.563-3.523-1-1.666-.438-3.807-1-5.79-1.117-3.916-1.345-8.086-1.913-12.153a101.228,101.228,0,0,0-2.109-10.326c-.534-2.152-.526-4.439-1.106-6.623-.6-2.259-.575-4.663-1.587-6.837a3.151,3.151,0,0,1-.1-1.207,17.109,17.109,0,0,0-.733-5.517c-.589-1.685.357-3.772-.934-5.445,0-3.884.02-7.768-.006-11.652a24.932,24.932,0,0,1,1.339-8.592c.917-2.635,1.266-5.561,1.946-8.351a70.481,70.481,0,0,1,3.863-12.139c.707-1.584.79-3.332,1.485-4.791,1.9-3.985,4.572-7.3,9.149-8.579a15.893,15.893,0,0,1,5.076-.827,66.766,66.766,0,0,0,7.486-.005,20.28,20.28,0,0,1,9.213,1.905c7.059,3.008,13.746,6.8,18,13.644,2.153.319,1.847,2.541,2.873,3.741s1.905,2.529,2.833,3.812c.73,1.01.432,2.036-.052,3.12,1.416.5,2.125,1.585,2.988,2.775,1.373,1.891.863,4.261,2.41,6.162,1.286,1.579,1.494,4.057,2.777,5.872-1.159,1.793,1.917,2.565,1.035,4.291,1.7,1.179-.077,3.567,1.2,4.416a10.839,10.839,0,0,1,2.879,3.416c1.336,1.994,1.326,4.752,3.356,6.448-.617.458-.863.866-.146,1.542.111.1-.762,1.061.152,1.716a8.724,8.724,0,0,1,3.248,4.881c.529,1.856,1.75,3.384,1.965,5.481.132,1.276.129,3.1,1.061,4.039,1.058,1.067,1.052,2.387,1.672,3.517.688,1.255,1.5,2.47,1.309,4.059a1.879,1.879,0,0,0,.784,1.3,2.367,2.367,0,0,1,.852,2.169c-.018,1.115-.533,2.536,1.423,2.741.164.017.08,1.273.324,1.865,1.175,2.848,2.646,5.581,3.233,8.649a1.3,1.3,0,0,0,.287.705c1.73,1.515,1.893,3.615,2.5,5.65.358,1.208.217,2.953,1.871,3.836,1.062.567-.056,1.33-.452,1.943,2.365,1.064.823,4.214,2.915,5.483.308.188.267.969.365,1.48s-.016,1.3.284,1.514c1.016.719.845,1.677,1.042,2.677.173.872,1.8,1.83,1.621,2.325-.458,1.257.6,1.765.741,2.645.164,1.043.319,2.088.477,3.132.039.262-.021.613.127.772,2.088,2.261,1.777,5.742,4.437,7.848l-2.851,1.854c.183.253.272.509.443.59.927.437,1.919.755,2.795,1.273.4.238.937,1.063.822,1.242-1.323,2.053.36,2.281,1.749,2.8v3.637c1.524.134,2.224,1.161,1.56,2.158a1.826,1.826,0,0,0,.823,2.957,2.5,2.5,0,0,1,1.772,2.787c-.009.492.1,1.227.432,1.446,1.779,1.191,1.79,3.12,2.456,4.841.4,1.031-.006,2.4,1.3,3.255.922.6,1.411,1.864,2.107,2.821a38.158,38.158,0,0,0,2.374,3.168c.774.859.366,1.336-.159,2.076-.186.263.525,1.055.594,1.633a25.828,25.828,0,0,1,.03,2.949l2.411-.926c-.282,1.186-1.434,2.045-.116,2.938.562.381,1.516.951.286,1.74.291.167.649.537.862.467a2.286,2.286,0,0,0,1.508-2.889c-.1-.353-.578-.582-.766-.931-.108-.2.018-.524.045-.869l1.521-.549c-.26-.415-.807-1.051-.711-1.172.867-1.082-.375-2.518.053-3.006,1.118-1.281.656-2.61.7-3.9a12.19,12.19,0,0,1,.794-4.26,6.928,6.928,0,0,0,.21-3.462c-.277-2.04-.768-4.346.694-6.295-1.112-1.434.1-2.867.087-4.3-.011-1.98-.7-4.028.49-6.011.956-1.592-.538-3.817,1.087-5.367-.288-2.448.709-4.795.733-7.146.045-4.454,1.063-8.766,1.939-13.006a78.207,78.207,0,0,1,4.4-14.371,87.307,87.307,0,0,1,9.664-18.024c2.6-3.556,4.156-8.127,8.636-10.138.249-.112.232-.725.441-1.036a14.984,14.984,0,0,1,7.191-5.476,12.665,12.665,0,0,0,2.814-1.291,6.324,6.324,0,0,1,3.6-1.377,21.907,21.907,0,0,0,3.819-.769c1.28-.245,2.779.578,3.838-.821.1-.134.533,0,.809-.021,3.214-.273,6.433-.506,9.64-.852,1.287-.139,2.555-.791,3.817-.752,2.111.065,4.2.6,6.317.744,2.072.139,4.189-.186,6.232.09a24.078,24.078,0,0,1,6.363,1.672c2.13.928,4.631.932,6.464,2.456,1.734,1.442,4.128,1.934,5.61,3.411,1.5,1.5,4.37,2.031,4.261,4.97-.009.241.417.591.715.735,3.034,1.455,3.793,4.55,5,7.216a11.4,11.4,0,0,1,.827,5.028c-.062,1.539,1.7.66,1.747,1.739a8.624,8.624,0,0,0,.2,2.416,20.433,20.433,0,0,1,1.478,6.465,2.2,2.2,0,0,0,.27,1.128c1.744,2.635,1.557,5.753,2.213,8.658.287,1.27,1.121,2.789.7,3.757-.6,1.388-.036,2.439.193,3.519.727,3.432.51,7.051,2.211,10.314.517.99-.124,2.636.462,3.522.657,1-.02,1.88.438,2.905a8.5,8.5,0,0,1,1.053,5c-.277,1.543,1,2.923.857,4.645-.128,1.515.536,3.084.729,4.644s-.385,3.259.832,4.662c.138.159,0,.54.021.816.274,4.879.148,9.822.917,14.622,1.469,9.182.333,18.375.732,27.551.057,1.311-.008,1.313,1.486,3.232.108-1.9.2-3.436.309-5.4.6.28,1.471.476,1.485.721a43.281,43.281,0,0,1,.01,5.818c-.051.663-.713,1.278-1.081,1.889-1.209-.511.536-3-1.936-2.393.754,1.434.546,3.121,2.009,4.421,1.2,1.066-.728,2.922-.039,4.467.02.045-.243.175-.27.289-.384,1.649-1.512,3.127-1.785,4.632-.258,1.425.963,3.106,1.468,4.7a3.929,3.929,0,0,1-.113,1.321l-1.579-.834c.812,3.5,2.138,6.919-.885,9.955,2.258,2.482,0,4.921-.263,7.407-.058.559-1.339.991-2.256,1.617l2.481.379a10.446,10.446,0,0,0-.712,5.629,3.686,3.686,0,0,1-.27,1.543,10.483,10.483,0,0,0-.574,4.5,10.523,10.523,0,0,1-.394,2.319,11.85,11.85,0,0,1-.436,2.317c-.428,1.067,1.53,2.193.016,3.028-1.32.727-.335,2.137-1.172,2.863-.256.223-.739.187-1.977.455l2.6.688c-.386.341-.1.086.194-.173,1.194,1.681-.637,3.086-.385,4.528.323,1.855-1.356,2.531-2.036,4.116l1.981.817c-.167,2.427.4,4.934-1.286,7.27-.925,1.278-.5,3.523.677,6.822a7.975,7.975,0,0,0-1.432-1.021,4.78,4.78,0,0,0-1.311-.025l2.458,3.646c-.877,1.185-1.773,2.331-.835,3.964.181.317-.11,1.051-.386,1.453a1.929,1.929,0,0,0,.041,2.577c.225.285.444.988.364,1.041-2.247,1.47.954,2.9.011,4.338-.551.841-1.054,1.713-1.4,2.285.54.64,1.008,1.139,1.413,1.684.856,1.151-1.154,2.078-.136,3.559.648.943.279,2.7.116,4.066-.575,4.8,1.255,9.444.858,14.223,1.236,2.415.665,5.027.862,7.56a41.993,41.993,0,0,0,.808,4.65c.274,1.421-.261,2.812.575,4.355.7,1.29-.055,3.293.348,4.847.262,1.009,1.334,1.78-.079,2.671,1.153.751.782,1.923.813,2.977a31.41,31.41,0,0,0,1.469,7.711,5.621,5.621,0,0,1,.115,3.221c-.375,1.038,1.707,1.771.143,2.694a10.811,10.811,0,0,1,.79,4.626,11.5,11.5,0,0,0,.725,4.259A58.992,58.992,0,0,1,584.3,438.5a23.877,23.877,0,0,0,.73,4.691,6.213,6.213,0,0,1-.742,5.417,2.713,2.713,0,0,0-.526,1.967l1.895-1.526c1.2,1.833-.467,2.647-1.472,3.894.766.849.508,2.389,2.183,2.787.311.074.407,1.432.442,2.2.085,1.833-.393,3.376-2.78,3.79,1.785.591,2.548,1.385,1.663,2.956-.093.166.657,1.063,1.3,1.3-1.5,1.711-.209,4.493-2.573,6.177l2.187-.436c-.195,2.073.161,4.59-.767,6.476-1.034,2.1.169,4.652-1.978,6.478l-2.865.235c0,.137-.007.273-.01.41l2.508.469a12.34,12.34,0,0,1-1.483,5.053,62.239,62.239,0,0,1-7.876,13c-1.575,2.071-3.384,3.854-5.081,5.775-1.6,1.816-3.048,3.783-4.735,5.515-4.3,4.413-8.721,8.691-14.473,11.243-2.583,3-6.314,4.11-9.67,5.8a142.414,142.414,0,0,1-16.787,6.682c-3.029,1.066-6.058,2.146-9.138,3.046s-6.389,1.1-9.313,2.647a3.228,3.228,0,0,1-1.6.13,11.535,11.535,0,0,0-6.524,1.348,5.148,5.148,0,0,1-1.526.327c-1.546.3-3.114-.435-4.727.723-1.016.73-2.932-.35-4.173.923-.135.139-.536.029-.813.017-5.736-.239-11.371,1.37-17.137.886a9.494,9.494,0,0,0-5.539.662,3.1,3.1,0,0,1-3.778-.657c-.921,1.15-2.212.751-3.377.763-3.329.035-6.662-.088-9.985.054-1.693.073-3.507-.728-5.1.75-.837.774-1.6-1.839-2.786-.4-2.241-.374-4.361.632-6.62.5-3.317-.2-6.828-.7-9.936.129-3.168.846-6.2.447-9.277.612-3.32.178-6.658-.029-9.984.078a10.957,10.957,0,0,0-3.391.823c-1.068.4-2.048-1.485-3.066-.028-1.157-.444-2.315-1.27-3.472,0-1.018-1.332-2.033.2-3.056,0s-2.012.086-3.125-.536c-1.064-.6-2.669-.378-4.018-.277-4.883.365-9.664-.658-14.252-1.848a130.315,130.315,0,0,1-13.361-3.848,4.648,4.648,0,0,0-2.016-.14c-4.89.476-9.482-1.516-14.291-1.714-.451-.019-.855-.583-1.327-.784-.825-.351-1.686-.619-2.533-.917a13.366,13.366,0,0,0-2.553-.842c-.778-.1.542-2.011-1.2-1.188-.6.283-1.635-.11-2.37-.428a26.677,26.677,0,0,1-3.035-1.715q-3.17-1.9-6.321-3.825C317.766,533.576,318.209,533.1,318.883,532.612ZM261.648,412.226c-.5-2.539-1.129-4.086-1-5.566a10.011,10.011,0,0,0-1.012-5.026,55.465,55.465,0,0,1-2.385-7.331c-1.178-3.956-2.238-7.947-3.348-11.923-.977-3.5-2.7-6.83-2.5-10.61-1.43-2.222-.337-5.214-2.417-7.36-.77-.794-.5-2.516-.965-3.716-.25-.653,1.95-1.186.072-1.57-1.843-.378.35-1.064-.218-1.5-1.978-1.5-2.273-3.8-2.608-5.976-.418-2.715-1.82-5.086-2.373-7.8a20.929,20.929,0,0,0-2-6.631,11.144,11.144,0,0,1-1.109-4.507c-.4-4.321-1.867-8.4-2.885-12.557-1.113-4.555-1.8-9.189-2.976-13.721.812-1.174-1.448-2.306-.047-3.488a31.268,31.268,0,0,1-1.585-3.46c-.406-1.243-.042-2.526-.538-3.931a103.678,103.678,0,0,1-2.818-11.315c-.585-2.536-1.026-5.109-1.694-7.622-.727-2.733-2.067-5.367-2.38-8.131-.564-4.987-1.855-9.843-2.444-14.775-.542-4.542-1.462-9.116-1.023-13.781a66.673,66.673,0,0,0,.023-7.9,11.746,11.746,0,0,0-.5-3.095,13.384,13.384,0,0,1-.118-6.059c.624-3.349.922-9.906.167-13.575-.4.811-1.221,1.671-1.124,2.412.43,3.31-.8,6.408-.958,9.643-.476,9.76,1.046,19.444.889,29.184a4.407,4.407,0,0,0,.076,1.63c1.531,3.821,1.549,7.941,2.384,11.9.167.793.038,1.57.805,2.183.953.76-1.569,1.511-.164,2.253,2,1.06.246,3.443,1.814,4.736.358.295-.242,1.725-.36,2.637a1.127,1.127,0,0,0,.147.788c1.135,1.342,1.147,1.332.295,2.933.585.809,2.191,1.308.825,2.711,1.176,1.591.234,4.047,2.194,5.351a1.345,1.345,0,0,1,.268,1.054c-1.1.676-.259,1.188-.008,1.868.314.848.123,1.9.48,2.713a18.639,18.639,0,0,1,2.015,8.709,5.667,5.667,0,0,0,.879,2.984c.455.947,1.133,1.805.842,2.986-.316,1.283,1.084,2.587-.011,3.882,1.69,1.771,1.15,4.275,2,6.24,1.982,4.581,1.383,9.805,3.826,14.219-.083,2.682,1.124,5.111,1.526,7.65.377,2.385,1.748,4.589,1.226,7.217-.219,1.1.485,2.546,1.126,3.621.709,1.187-.17,2.567,1.01,3.806.841.883.237,3.392,1.089,3.962,1.724,1.154-.833,2.525.591,3.329.682,4.258,3.776,7.622,4.407,11.9,1.852.9,1.271,2.8,1.77,4.257.542,1.588,1.453,3.051,1.429,4.825-.009.659.362,1.319.381,1.985.022.747-.378,1.557-.2,2.238.321,1.241,2.361,2.038.913,3.735.693,1.159,1.461,2.282,2.053,3.49.448.914.434,2.132,1.041,2.874,1.268,1.55.128,3.591,1.1,4.95,1.2,1.669-.229,3.538,1.019,4.964C260.161,408.1,259.792,410.273,261.648,412.226Zm59-72.047c-.075,1.356-.371,2.233-.115,2.9.918,2.387,2.006,4.71,3.071,7.037.268.586.789,1.061,1.026,1.654.616,1.546.506,3.436,1.915,4.6,1.3,1.068-.462,3.8,2.265,3.991.756,3.7,3.113,6.8,4.039,10.36.576,2.219,2.316,3.825,2.578,6,.442,3.667,3.6,6.4,3.4,10.253-.01.185.428.357.551.592.9,1.7,2.291,3.355,2.519,5.15.274,2.164,2.308,3.63,1.92,5.908-.01.059.355.182.544.275.406-.953.8-1.871,1.214-2.853l-1.678-.618a24.679,24.679,0,0,0-.282-3.6c-.258-1.18-1.47-2.6-1.109-3.368.65-1.389-.88-1.969-.56-3.235.21-.832-.7-2.34-1.537-2.957-1.429-1.051.308-2.869-.551-3.09-2.248-.576-.485-2.117-1.047-3.022a33.791,33.791,0,0,1-1.667-3.047c-.561-1.15-1.035-2.342-1.564-3.508-.476-1.05-1.036-2.066-1.449-3.139-.461-1.2-.723-2.472-1.211-3.655a33.818,33.818,0,0,0-1.614-3.072c-.55-1.019-1.131-2.022-1.657-3.054-.582-1.142-1.154-2.292-1.66-3.468-.454-1.058-.7-2.214-1.241-3.222-.552-1.035-1.4-1.9-2.01-2.915-.661-1.1-1.147-2.3-1.791-3.409C322.356,342.65,321.655,341.694,320.65,340.179ZM545.217,510.968c3.437-3.422,6.517-6.353,8.591-10.2a38.2,38.2,0,0,0,4.749-17.126c.03-.962.813-2.145.464-2.821-.674-1.305-.687-2.209.326-3.216a.791.791,0,0,0-.043-.768c-1.292-.931-.839-2.3-.723-3.426.34-3.277-.993-6.283-1.209-9.47a8.79,8.79,0,0,0-.879,3.376,25.719,25.719,0,0,1-.446,2.891c-.043,1.243.026,2.49-.021,3.732a9.5,9.5,0,0,1-.337,3.175c-.4.961.067,1.859-.374,2.89-.765,1.79.393,3.889-.72,5.934-.951,1.748.65,4.456-1.846,5.86a2.062,2.062,0,0,1,.787,2.126c-.253,1.345-4.156,7.434-5.53,8.405-1.031.728-.907,2.55-2.572,2.611-.073,1.076-.161,2.151-.212,3.228C545.191,508.849,545.217,509.533,545.217,510.968ZM468.084,200.6c-2.1.144-2.125,1.421-1.942,2.839.194,1.5.115,4.64-.44,5.776-.345.707-.5,1.111.04,1.75,1.53,1.8-.766,1.351-1.257,2.059l1.826.854a24.633,24.633,0,0,0-2.073,5.869c-.209,1.443.858,2.625.235,3.942a2.25,2.25,0,0,1-.435.489l-.979-.8c-1.016,1.866,1.08,1.434,1.25,1.807v3.865l-1.441.485L464.8,232l-2.022,1.587c1.287,1.918,1.047,3.73.534,5.574-.078.281-.163.813-.082.847,1.939.822.8,2.923,1.722,4.491,2.158-3.007.684-6.147,1.4-9.538.229-.163.877-.623,1.453-1.034-.975-2.261-1.186-2.368-.611-3.56.647-1.341-.66-2.31-.247-3.572a24.567,24.567,0,0,0,.834-4.222c.043-.3-.41-.645-.542-1a1.916,1.916,0,0,1-.177-1.113c.431-1.341.954-2.652,1.444-3.974-1.507-1.466-.086-2.828.105-4.247.06-.447-.34-.949-.5-1.435-.121-.367-.377-1-.262-1.085,1.286-.917.25-2.6.93-3.347,1.229-1.348-.147-2.567.144-3.458,1.2-3.666.148-7.35.564-10.986.127-1.106.328-2.2.509-3.395-.306.015-.857-.12-1.024.075-.892,1.039.387,2.781-1.121,3.722a13.25,13.25,0,0,1,.572,1.35c.075.45.076,1.167-.194,1.379C466.078,196.742,467.056,198.6,468.084,200.6ZM361.009,237.615l-.568.066a24.96,24.96,0,0,1-.03,3.2,35.153,35.153,0,0,1-.938,3.734l1.646-1.423c.407,2.317.672,4.494,1.19,6.61.833,3.405,1.725,6.792,2.308,10.254.306,1.814,1.137,3.541.876,5.447,1.777,1.328.273,3.5,1.458,5.248,1,1.471.606,3.842,1.007,5.777.432,2.088,1.1,4.13.806,6.3,1.385,1.19.19,3.146.939,4.143,1.206,1.606.38,3.185.735,4.716.144.621.411,1.213.593,1.828a15.489,15.489,0,0,1,1.009,3.714c.081,2.805,1.321,5.314,1.795,8.015.193,1.1,1.241,2.05,2.206,3.541.122-1.023.324-1.477.19-1.784a35.08,35.08,0,0,1-2.3-9.38c-.694-5.094-2.937-9.9-2.668-15.135-1.608-1.691-.523-4.033-1.533-6.021-.9-1.781-.254-4.328-1.09-6.175-.778-1.716-.358-3.417-.895-5.032-2.127-6.4-3.129-13.085-4.8-19.6C362.26,242.99,361.652,240.3,361.009,237.615ZM577.677,227.25c0-1.929-.357-3.947.1-5.761s-2-3.442-.106-5.155c-1.667-1.461-.511-3.382-.819-5.065s-.618-3.366-.827-5.062c-.326-2.651-.077-5.5-1-7.911-.74-1.933-.082-3.855-.77-5.5-.834-1.994-.712-3.938-.725-5.932a13.95,13.95,0,0,0-.734-3.427,22.038,22.038,0,0,0-1.682-3.816c2.2-1-1.649-3.038.687-4.016a10.908,10.908,0,0,0-.8-1.7c-.348-.5-1.165-.854-.175-1.484l-.967-1.445-3.2,2.052a11.086,11.086,0,0,0,2.7,2.047c1.441.486.364.806.094,1.223,1.4.866.142,1.941.273,2.882.127.91-.169,1.794.035,2.65.338,1.425-.071,3.309,2.143,3.737l-1.723.815c1.561,1.157.7,2.325.118,3.563l2.568.387c-.26.911-.506,1.634-.664,2.376a2.346,2.346,0,0,0-.055,1.4,17.429,17.429,0,0,1,2.208,7.406c0,1.248-.406,2.692.081,3.7,1.206,2.506.894,4.913.316,7.413-.063.27-.04.752.12.852,1.29.8,1.159,2.051,1.152,3.287-.013,2.356-.038,4.714.019,7.069.016.672.656,1.588.395,1.961C575.505,227.123,577.235,226.88,577.677,227.25ZM470.96,347.355c.5-1.933-.379-4.093,1.012-5.813-.3-3.5,2.057-6.565,1.665-10.082,1.365-1.3.33-3.174,1.022-4.544,1.44-2.853,1.041-6.124,2.263-9.01.123-.291-.365-.841-.569-1.27-.351.283-.823.5-1.032.86-1.613,2.8-2.31,5.948-3.412,8.944a34.917,34.917,0,0,0-2.316,8.116c-.448,4.2-.118,8.481-.118,12.8ZM333.181,498.106c.692,2.376,1.038,4.689,2.033,6.676,1.027,2.05,1.771,4.351,3.664,5.608l-1.331,3c2.107-1.561,3.431-1.424,4.58.068.5.643,1.5,1.14,1.594,1.8.291,1.994,1.49.91,2.7,1.046-2.869-2.9-4.193-6.424-5.864-9.675s-4.181-5.711-6.335-8.509C334.123,497.991,333.7,498.106,333.181,498.106Zm232.424-38.6c-.637-1.636-1.157-2.4-1.205-3.2a46.142,46.142,0,0,0-.744-7.143c-.522-2.409-1.134-4.815-1.582-7.216-.673-3.6-2.4-7.055-1.9-10.864.009-.071-.352-.191-.639-.339-.728,3.98.6,7.7,1.011,11.506a52,52,0,0,0,1.263,7.487c.167.644-.326,1.46-.573,2.417a6.458,6.458,0,0,1,1.2,1.213c.13.2-.526.9-.4,1.113.35.573,1.15.932,1.349,1.518.16.473-.295,1.154-.553,1.989Zm-81.07-198.483-.707-.034c-.943,3.748-1.61,7.594-2.908,11.215a75.031,75.031,0,0,0-3.214,11.187c1.878-.874,3.047-1.818,3.437-3.561.593-2.648,1.953-5.117,1.851-7.929,1.6-1.508.129-3.568,1.027-5.384C484.783,264.982,484.407,262.88,484.535,261.027Z"/></svg>