<?xml version="1.0" standalone="no"?><svg xmlns="http://www.w3.org/2000/svg" viewBox="0 0 1440 320"><path fill="#03045e" fill-opacity="1" d="M0,32L40,26.7C80,21,160,11,240,48C320,85,400,171,480,186.7C560,203,640,149,720,133.3C800,117,880,139,960,149.3C1040,160,1120,160,1200,176C1280,192,1360,224,1400,240L1440,256L1440,320L1400,320C1360,320,1280,320,1200,320C1120,320,1040,320,960,320C880,320,800,320,720,320C640,320,560,320,480,320C400,320,320,320,240,320C160,320,80,320,40,320L0,320Z"></path></svg>